<?xml version="1.0" standalone="no"?>
<!DOCTYPE svg PUBLIC "-//W3C//DTD SVG 20010904//EN"
 "http://www.w3.org/TR/2001/REC-SVG-20010904/DTD/svg10.dtd">
<svg version="1.0" xmlns="http://www.w3.org/2000/svg"
 width="260.000000pt" height="260.000000pt" viewBox="0 0 260.000000 260.000000"
 preserveAspectRatio="xMidYMid meet">
<metadata>
Created by potrace 1.14, written by Peter Selinger 2001-2017
</metadata>
<g transform="translate(0.000000,260.000000) scale(0.100000,-0.100000)"
fill="#000000" stroke="none">
<path d="M0 1300 l0 -1300 1300 0 1300 0 0 1300 0 1300 -1300 0 -1300 0 0
-1300z m1378 508 c-2 -167 -7 -263 -13 -263 -6 0 -11 96 -13 263 -2 230 0 262
13 262 13 0 15 -32 13 -262z m422 34 l40 -33 21 35 c12 20 23 36 25 36 2 0 4
-60 3 -132 l0 -133 -17 66 c-33 125 -108 197 -194 186 -86 -12 -123 -67 -116
-178 3 -53 9 -73 30 -101 15 -20 24 -38 21 -42 -4 -3 -30 -6 -60 -6 -48 0 -54
3 -63 26 -24 62 -2 178 45 239 41 55 89 76 162 72 53 -2 68 -8 103 -35z m-765
3 c22 -11 59 -39 83 -63 45 -45 112 -170 112 -210 0 -22 -3 -23 -52 -20 l-52
3 -13 62 c-21 108 -90 214 -147 229 -12 3 -49 4 -81 2 l-60 -3 -3 -147 -3
-148 -44 0 -44 0 -3 148 -3 147 -38 3 c-22 2 -35 7 -31 13 4 7 68 9 172 7 142
-3 173 -6 207 -23z m770 -250 c16 -1 21 -10 23 -43 4 -51 -9 -55 -26 -8 -24
66 -86 55 -80 -13 3 -32 8 -39 51 -59 69 -33 87 -94 46 -161 -18 -30 -23 -32
-52 -26 -18 3 -42 6 -54 7 -21 0 -23 5 -23 49 0 27 3 49 8 49 4 -1 16 -20 27
-43 15 -32 26 -43 47 -45 22 -3 30 2 39 22 19 42 4 75 -46 96 -51 22 -65 43
-65 100 0 48 39 97 68 85 9 -4 26 -8 37 -10z m-1230 -29 c41 -41 55 -124 34
-199 -17 -63 -39 -77 -116 -77 -51 1 -64 3 -50 11 15 9 17 26 17 134 0 72 -4
126 -10 130 -24 15 -6 25 45 25 45 0 60 -4 80 -24z m1563 -17 c-4 -27 -22 -25
-29 3 l-5 23 -12 -22 c-17 -32 -15 -83 3 -83 8 0 15 -4 15 -9 0 -5 -7 -11 -15
-15 -11 -4 -15 -22 -15 -76 0 -40 4 -70 10 -70 6 0 10 -4 10 -10 0 -5 -13 -10
-30 -10 -29 0 -40 13 -20 25 13 8 13 111 -1 137 -8 14 -8 23 0 31 6 6 11 23
11 38 0 14 9 38 21 53 17 21 24 24 40 15 12 -6 19 -18 17 -30z m-857 -72 c24
-15 24 -23 -1 -30 -17 -4 -20 -14 -20 -67 0 -53 3 -63 20 -67 24 -6 26 -21 5
-29 -31 -12 -45 15 -45 92 0 40 -4 75 -9 78 -5 3 -1 21 8 39 12 27 17 30 19
15 2 -10 12 -24 23 -31z m930 -7 c25 0 24 -16 -1 -23 -19 -5 -21 -12 -18 -74
3 -58 6 -68 21 -67 10 1 16 -3 14 -10 -2 -6 -15 -11 -28 -11 -23 0 -24 3 -27
75 -2 41 -7 79 -13 86 -6 8 -4 22 8 43 18 31 18 31 21 6 2 -17 10 -25 23 -25z
m-1465 2 c16 -11 34 -48 34 -71 0 -18 -6 -21 -40 -21 -46 0 -59 -17 -42 -56
13 -27 49 -33 58 -9 4 8 10 15 15 15 17 0 -10 -38 -31 -45 -66 -21 -103 97
-55 172 15 23 40 29 61 15z m119 -2 c4 -6 13 -5 25 2 15 10 23 9 40 -7 20 -18
22 -18 31 -2 6 9 16 17 23 17 26 0 40 -33 45 -111 l6 -79 -30 1 c-16 0 -24 3
-17 6 8 3 12 28 12 74 0 55 -3 71 -16 76 -9 3 -20 0 -25 -8 -14 -22 -11 -136
4 -142 6 -3 -6 -5 -28 -5 -22 0 -34 2 -27 5 8 3 12 28 12 74 0 55 -3 71 -16
76 -25 10 -35 -17 -32 -90 3 -61 1 -67 -17 -67 -19 0 -20 7 -20 95 0 67 4 95
12 95 6 0 15 -4 18 -10z m309 -12 c8 -13 16 -34 18 -48 3 -23 -1 -25 -40 -28
-42 -3 -43 -4 -40 -34 4 -44 30 -58 60 -33 l22 20 -15 -25 c-38 -59 -99 -16
-99 70 0 81 60 130 94 78z m194 5 c9 -15 11 -15 28 1 17 18 18 18 31 0 7 -10
13 -21 13 -25 0 -15 -21 -20 -35 -9 -17 14 -20 8 -30 -61 -4 -35 -2 -51 9 -62
8 -8 12 -17 9 -21 -10 -10 -51 -7 -58 4 -3 6 -1 10 4 10 14 0 15 147 1 155
-11 7 -4 25 10 25 5 0 13 -8 18 -17z m190 5 c7 -7 12 -39 12 -76 0 -35 5 -72
11 -84 13 -24 5 -35 -15 -19 -11 9 -20 10 -35 2 -31 -17 -51 -13 -63 14 -13
30 7 67 49 87 33 16 40 40 17 62 -19 20 -31 12 -36 -24 -3 -27 -21 -31 -26 -5
-8 39 57 72 86 43z m427 -28 c28 -54 11 -148 -30 -164 -58 -22 -98 90 -60 164
12 23 22 30 45 30 23 0 33 -7 45 -30z m-1167 -392 l3 -148 25 -6 c35 -9 117 2
152 20 42 22 87 95 107 174 27 107 30 112 69 112 60 0 66 -6 51 -49 -41 -118
-104 -201 -182 -243 -42 -22 -64 -26 -178 -31 -71 -3 -150 -2 -175 2 -45 8
-45 9 -9 10 24 1 39 7 43 17 3 9 6 79 6 155 l0 140 43 -3 42 -3 3 -147z m562
-139 c0 -241 -2 -279 -15 -279 -13 0 -15 38 -15 278 0 153 3 282 6 285 20 20
24 -30 24 -284z m548 228 c6 -117 -48 -226 -131 -265 -62 -29 -158 -19 -212
22 -20 15 -33 31 -30 34 4 4 12 -1 19 -11 7 -9 18 -17 24 -17 6 0 12 -5 14
-11 5 -14 96 -24 132 -15 93 23 155 178 112 281 -16 38 -10 45 39 42 29 -2 30
-3 33 -60z m-432 -71 c8 -31 24 -72 35 -91 17 -28 18 -35 7 -35 -8 0 -23 -16
-34 -35 -10 -19 -22 -35 -26 -35 -5 0 -8 59 -8 132 0 72 3 129 6 126 3 -3 12
-31 20 -62z"/>
<path d="M494 1557 c-2 -7 -3 -67 -2 -133 3 -113 4 -119 24 -122 14 -2 29 7
44 25 19 25 21 38 18 114 -2 68 -7 91 -22 108 -21 24 -54 28 -62 8z"/>
<path d="M698 1446 c-15 -34 -4 -58 24 -54 26 3 36 41 18 64 -18 20 -29 17
-42 -10z"/>
<path d="M1122 1458 c-7 -7 -12 -25 -12 -40 0 -23 4 -28 25 -28 31 0 42 23 27
56 -13 27 -22 30 -40 12z"/>
<path d="M1505 1364 c-20 -21 -16 -58 7 -62 12 -2 22 6 28 24 18 47 -3 70 -35
38z"/>
<path d="M1922 1448 c-18 -18 -16 -133 3 -148 28 -23 45 5 45 74 0 55 -11 86
-30 86 -3 0 -11 -5 -18 -12z"/>
</g>
</svg>
